#!OML:ASF F:\VICON\USERDATA\INSTALL\rory3\rory3.ASF
:FULLY-SPECIFIED
:DEGREES
186
root -0.186103 17.855 7.78888 -0.158396 -4.22959 -8.01527
lowerback 9.23898 2.49654 7.26256
upperback -0.196821 4.20144 1.747
thorax -5.00595 1.90806 -2.79114
lowerneck -16.9846 -3.22701 -0.863771
upperneck 20.6614 -4.47594 0.943893
head 9.35868 -2.04645 -0.111162
rclavicle -1.51325e-014 9.34288e-015
rhumerus -20.3687 -9.86812 -82.5877
rradius 31.2729
rwrist 0.686797
rhand -18.4655 24.4503
rfingers 7.12502
rthumb 7.82109 -5.38502
lclavicle -1.51325e-014 9.34288e-015
lhumerus -36.7883 5.70972 83.3568
lradius 22.8389
lwrist 5.60121
lhand -30.5543 16.4299
lfingers 7.12502
lthumb -3.85277 46.3749
rfemur 7.30691 5.16819 34.2993
rtibia 23.3944
rfoot -20.7058 -0.0850138
rtoes 4.85494
lfemur -25.2797 -6.36236 -9.14248
ltibia 13.4484
lfoot -8.18031 8.99624
ltoes -9.52875
187
root -0.166903 17.8433 7.97056 -0.148978 -4.09128 -8.01333
lowerback 9.21405 2.4366 7.37143
upperback -0.226426 4.13132 1.71485
thorax -5.02035 1.86911 -2.87609
lowerneck -16.803 -3.19666 -0.833438
upperneck 20.4257 -4.44692 0.982898
head 9.24328 -2.02985 -0.0935395
rclavicle -2.22701e-014 1.88845e-014
rhumerus -20.2684 -10.1593 -82.5776
rradius 31.3356
rwrist 0.484868
rhand -18.4806 24.5599
rfingers 7.12502
rthumb 7.80646 -5.27596
lclavicle -2.22701e-014 1.88845e-014
lhumerus -37.0723 6.15207 82.966
lradius 22.2034
lwrist 4.79764
lhand -31.6547 18.0983
lfingers 7.12502
lthumb -4.91533 48.0213
rfemur 7.74204 5.08862 34.2467
rtibia 23.7133
rfoot -20.7307 0.216702
rtoes 2.85524
lfemur -25.3803 -5.24532 -9.8084
ltibia 13.9604
lfoot -7.82489 7.9101
ltoes -6.04347
188
root -0.146066 17.8289 8.15308 -0.202526 -4.01366 -7.93022
lowerback 9.42754 2.38542 7.36962
upperback -0.305663 4.08665 1.68302
thorax -5.22689 1.83652 -2.9178
lowerneck -16.7955 -3.22653 -0.894428
upperneck 20.408 -4.48155 1.02428
head 9.23867 -2.04642 -0.0735566
rclavicle 3.19981e-014 5.26779e-014
rhumerus -20.3515 -10.4738 -82.5031
rradius 31.4936
rwrist 0.524992
rhand -18.606 24.6139
rfingers 7.12502
rthumb 7.68548 -5.22648
lclavicle 3.19981e-014 5.26779e-014
lhumerus -37.2958 6.8897 82.5123
lradius 21.5514
lwrist 3.58882
lhand -32.6087 15.7479
lfingers 7.12502
lthumb -5.83639 45.6475
rfemur 8.21763 5.20174 34.166
rtibia 24.1452
rfoot -20.5282 0.375578
rtoes 2.59299
lfemur -25.466 -4.35478 -10.496
ltibia 14.8128
lfoot -7.05784 7.2023
ltoes -3.66738
189
root -0.127107 17.8022 8.33872 -0.27396 -3.82374 -7.89805
lowerback 9.55716 2.3134 7.32416
upperback -0.345821 4.00333 1.72807
thorax -5.35731 1.79114 -2.84387
lowerneck -16.7493 -3.28843 -0.825811
upperneck 20.4271 -4.5405 0.826702
head 9.23037 -2.09104 -0.159288
rclavicle -1.27098e-014 -2.83268e-014
rhumerus -20.5416 -10.7887 -82.334
rradius 31.9071
rwrist 0.635999
rhand -18.8756 24.1174
rfingers 7.12502
rthumb 7.4252 -5.73225
lclavicle -1.27098e-014 -2.83268e-014
lhumerus -37.5582 6.60616 82.8635
lradius 21.3082
lwrist 4.88026
lhand -32.3628 13.1998
lfingers 7.12502
lthumb -5.599 43.1059
rfemur 8.67634 5.25241 34.1583
rtibia 24.642
rfoot -20.2193 0.628792
rtoes 2.93124
lfemur -25.6519 -3.65547 -11.1101
ltibia 15.9673
lfoot -6.2344 6.91004
ltoes -3.00684
